<svg xmlns="http://www.w3.org/2000/svg" viewBox="0 0 32 32" fill="none">
  <!-- White background with rounded corners -->
  <rect width="32" height="32" rx="6" fill="white"/>
  <!-- Infinity symbol with bezier curves -->
  <path d="M16 16 C16 12, 12 9, 8.5 9 C5 9, 4 12, 4 16 C4 20, 5 23, 8.5 23 C12 23, 16 20, 16 16 C16 12, 20 9, 23.5 9 C27 9, 28 12, 28 16 C28 20, 27 23, 23.5 23 C20 23, 16 20, 16 16" stroke="#111827" stroke-width="1.5" stroke-linecap="round" fill="none"/>
  <!-- Control points -->
  <circle cx="8.5" cy="9" r="1.5" fill="#111827"/>
  <circle cx="4" cy="16" r="1.5" fill="#111827"/>
  <circle cx="8.5" cy="23" r="1.5" fill="#111827"/>
  <circle cx="23.5" cy="9" r="1.5" fill="#111827"/>
  <circle cx="28" cy="16" r="1.5" fill="#111827"/>
  <circle cx="23.5" cy="23" r="1.5" fill="#111827"/>
</svg>
